<svg xmlns="http://www.w3.org/2000/svg" role="img" viewBox="0 0 25 25" class="e-9541-logo e-9541-baseline" aria-label="Spotify" aria-hidden="false" height="32" data-encore-id="logoSpotify">
  <title>Spotify</title>
  <path d="M13.427.01C6.805-.253 1.224 4.902.961 11.524.698 18.147 5.853 23.728 12.476 23.99c6.622.263 12.203-4.892 12.466-11.514S20.049.272 13.427.01m5.066 17.579a.717.717 0 0 1-.977.268 14.4 14.4 0 0 0-5.138-1.747 14.4 14.4 0 0 0-5.42.263.717.717 0 0 1-.338-1.392c1.95-.474 3.955-.571 5.958-.29 2.003.282 3.903.928 5.647 1.92a.717.717 0 0 1 .268.978m1.577-3.15a.93.93 0 0 1-1.262.376 17.7 17.7 0 0 0-5.972-1.96 17.7 17.7 0 0 0-6.281.238.93.93 0 0 1-1.11-.71.93.93 0 0 1 .71-1.11 19.5 19.5 0 0 1 6.94-.262 19.5 19.5 0 0 1 6.599 2.165c.452.245.62.81.376 1.263m1.748-3.551a1.147 1.147 0 0 1-1.546.488 21.4 21.4 0 0 0-6.918-2.208 21.4 21.4 0 0 0-7.259.215 1.146 1.146 0 0 1-.456-2.246 23.7 23.7 0 0 1 8.034-.24 23.7 23.7 0 0 1 7.657 2.445c.561.292.78.984.488 1.546m13.612-.036-.832-.247c-1.67-.495-2.14-.681-2.14-1.353 0-.637.708-1.327 2.264-1.327 1.539 0 2.839.752 3.51 1.31.116.096.24.052.24-.098V6.935c0-.097-.027-.15-.098-.203-.83-.62-2.272-1.07-3.723-1.07-2.953 0-4.722 1.68-4.722 3.59 0 2.157 1.371 2.91 3.626 3.546l.973.274c1.689.478 1.998.902 1.998 1.556 0 1.097-.831 1.433-2.07 1.433-1.556 0-3.457-.911-4.35-2.025-.08-.098-.177-.053-.177.062v2.423c0 .097.01.141.08.22.743.814 2.52 1.53 4.59 1.53 2.546 0 4.456-1.485 4.456-3.784 0-1.787-1.052-2.865-3.625-3.635m10.107-1.76c-1.68 0-2.653 1.026-3.219 2.052V9.376c0-.08-.044-.124-.124-.124h-2.22c-.079 0-.123.044-.123.124V20.72c0 .08.044.124.124.124h2.22c.079 0 .123-.044.123-.124v-4.536c.566 1.025 1.521 2.034 3.237 2.034 2.264 0 3.89-1.955 3.89-4.581s-1.644-4.545-3.908-4.545m-.654 6.986c-1.185 0-2.211-1.167-2.618-2.458.407-1.362 1.344-2.405 2.618-2.405 1.211 0 2.051.92 2.051 2.423s-.84 2.44-2.051 2.44m40.633-6.826h-2.264c-.08 0-.115.017-.15.097l-2.282 5.483-2.29-5.483c-.035-.08-.07-.097-.15-.097h-3.661v-.584c0-.955.645-1.397 1.476-1.397.496 0 1.035.256 1.415.486.089.053.15-.008.115-.088l-.796-1.901a.26.26 0 0 0-.124-.133c-.389-.203-1.025-.38-1.644-.38" fill="#1DB954" />
</svg>